# xmcd
#
# Track frame offsets: 
#        150
#        22470
#        44699
#        72260
#        99294
#        125822
#        156381
#        185103
#        204924
#        230203
#        261074
#        280978
#        307077
#        325274
#
# Disc length: 4583 seconds
#
# Revision: 6
# Processed by: cddbd v1.5.2PL0 Copyright (c) Steve Scherf et al.
# Submitted via: ExactAudioCopy v1.0b3
#
DISCID=e011e50e
DTITLE=Dan Brown - Das verlorene Symbol (5v6)
DYEAR=2009
DGENRE=Audiobook
TTITLE0=501 Das verlorene Symbol
TTITLE1=502 Das verlorene Symbol
TTITLE2=503 Das verlorene Symbol
TTITLE3=504 Das verlorene Symbol
TTITLE4=505 Das verlorene Symbol
TTITLE5=506 Das verlorene Symbol
TTITLE6=507 Das verlorene Symbol
TTITLE7=508 Das verlorene Symbol
TTITLE8=509 Das verlorene Symbol
TTITLE9=510 Das verlorene Symbol
TTITLE10=511 Das verlorene Symbol
TTITLE11=512 Das verlorene Symbol
TTITLE12=513 Das verlorene Symbol
TTITLE13=514 Das verlorene Symbol
EXTD=YEAR: 2009
EXTT0=
EXTT1=
EXTT2=
EXTT3=
EXTT4=
EXTT5=
EXTT6=
EXTT7=
EXTT8=
EXTT9=
EXTT10=
EXTT11=
EXTT12=
EXTT13=
PLAYORDER=
